<svg width="16" height="16" viewBox="0 0 16 16" fill="none" xmlns="http://www.w3.org/2000/svg">
<g id="chat_FILL0_wght400_GRAD0_opsz48 1">
<path id="Vector" d="M3.99998 9.35004H9.21665V8.35004H3.99998V9.35004ZM3.99998 7.18337H12V6.18337H3.99998V7.18337ZM3.99998 5.01671H12V4.01671H3.99998V5.01671ZM1.33331 14.6667V2.33337C1.33331 2.06671 1.43331 1.83337 1.63331 1.63337C1.83331 1.43337 2.06665 1.33337 2.33331 1.33337H13.6666C13.9333 1.33337 14.1666 1.43337 14.3666 1.63337C14.5666 1.83337 14.6666 2.06671 14.6666 2.33337V11C14.6666 11.2667 14.5666 11.5 14.3666 11.7C14.1666 11.9 13.9333 12 13.6666 12H3.99998L1.33331 14.6667ZM3.56665 11H13.6666V2.33337H2.33331V12.3334L3.56665 11Z" fill="#767B8A"/>
</g>
</svg>
