<svg width="18" height="18" viewBox="0 0 18 18" fill="none" xmlns="http://www.w3.org/2000/svg">
<path d="M9 0.5C11.3095 0.5 11.5976 0.5085 12.5037 0.551C13.4089 0.5935 14.0252 0.73545 14.5675 0.94625C15.1285 1.16215 15.6011 1.45455 16.0737 1.9263C16.5059 2.35121 16.8404 2.8652 17.0538 3.4325C17.2637 3.97395 17.4065 4.59105 17.449 5.4963C17.489 6.4024 17.5 6.69055 17.5 9C17.5 11.3095 17.4915 11.5976 17.449 12.5037C17.4065 13.4089 17.2637 14.0252 17.0538 14.5675C16.841 15.1351 16.5065 15.6492 16.0737 16.0737C15.6487 16.5058 15.1347 16.8402 14.5675 17.0538C14.026 17.2637 13.4089 17.4065 12.5037 17.449C11.5976 17.489 11.3095 17.5 9 17.5C6.69055 17.5 6.4024 17.4915 5.4963 17.449C4.59105 17.4065 3.9748 17.2637 3.4325 17.0538C2.86498 16.8408 2.3509 16.5063 1.9263 16.0737C1.494 15.6489 1.15954 15.1348 0.94625 14.5675C0.73545 14.026 0.5935 13.4089 0.551 12.5037C0.51105 11.5976 0.5 11.3095 0.5 9C0.5 6.69055 0.5085 6.4024 0.551 5.4963C0.5935 4.5902 0.73545 3.9748 0.94625 3.4325C1.15895 2.86485 1.49348 2.35072 1.9263 1.9263C2.35102 1.49385 2.86506 1.15937 3.4325 0.94625C3.9748 0.73545 4.5902 0.5935 5.4963 0.551C6.4024 0.51105 6.69055 0.5 9 0.5ZM9 4.75C7.87283 4.75 6.79183 5.19777 5.9948 5.9948C5.19777 6.79183 4.75 7.87283 4.75 9C4.75 10.1272 5.19777 11.2082 5.9948 12.0052C6.79183 12.8022 7.87283 13.25 9 13.25C10.1272 13.25 11.2082 12.8022 12.0052 12.0052C12.8022 11.2082 13.25 10.1272 13.25 9C13.25 7.87283 12.8022 6.79183 12.0052 5.9948C11.2082 5.19777 10.1272 4.75 9 4.75ZM14.525 4.5375C14.525 4.25571 14.4131 3.98546 14.2138 3.7862C14.0145 3.58694 13.7443 3.475 13.4625 3.475C13.1807 3.475 12.9105 3.58694 12.7112 3.7862C12.5119 3.98546 12.4 4.25571 12.4 4.5375C12.4 4.81929 12.5119 5.08954 12.7112 5.2888C12.9105 5.48806 13.1807 5.6 13.4625 5.6C13.7443 5.6 14.0145 5.48806 14.2138 5.2888C14.4131 5.08954 14.525 4.81929 14.525 4.5375ZM9 6.45C9.6763 6.45 10.3249 6.71866 10.8031 7.19688C11.2813 7.6751 11.55 8.3237 11.55 9C11.55 9.6763 11.2813 10.3249 10.8031 10.8031C10.3249 11.2813 9.6763 11.55 9 11.55C8.3237 11.55 7.6751 11.2813 7.19688 10.8031C6.71866 10.3249 6.45 9.6763 6.45 9C6.45 8.3237 6.71866 7.6751 7.19688 7.19688C7.6751 6.71866 8.3237 6.45 9 6.45Z" fill="#767B8A"/>
</svg>
