<svg width="16" height="18" viewBox="0 0 16 18" fill="none" xmlns="http://www.w3.org/2000/svg">
<path d="M8.37916 0.279695C9.32446 0.265137 10.2625 0.272416 11.2006 0.265137C11.2583 1.37881 11.6552 2.51433 12.4634 3.30045C13.2716 4.10842 14.4117 4.47964 15.523 4.60338V7.5368C14.4839 7.5004 13.4376 7.28203 12.4923 6.83074C12.081 6.64149 11.6985 6.40128 11.3233 6.1538C11.3161 8.27925 11.3305 10.4047 11.3089 12.5229C11.2511 13.5419 10.9192 14.5537 10.3347 15.3908C9.3894 16.7883 7.75137 17.6982 6.07004 17.7273C5.03815 17.7855 4.00627 17.5017 3.12591 16.9776C1.66828 16.1114 0.643608 14.5246 0.492072 12.8213C0.47764 12.4574 0.470424 12.0934 0.484856 11.7367C0.614744 10.3537 1.29305 9.02898 2.34659 8.12639C3.54444 7.07822 5.21855 6.57598 6.78443 6.87441C6.79886 7.9517 6.75556 9.02898 6.75556 10.1063C6.04118 9.87334 5.20412 9.93885 4.57633 10.3756C4.12172 10.674 3.77535 11.1326 3.59495 11.6494C3.44342 12.0206 3.48671 12.4282 3.49393 12.8213C3.66711 14.0151 4.80724 15.0195 6.01953 14.9104C6.82772 14.9031 7.59983 14.43 8.01836 13.7385C8.15547 13.4982 8.307 13.2508 8.31422 12.9669C8.38638 11.664 8.35751 10.3683 8.36473 9.06537C8.37195 6.13196 8.35751 3.20583 8.37916 0.279695Z" fill="#767B8A"/>
</svg>
